<svg width="97" height="97" xmlns="http://www.w3.org/2000/svg" xmlns:xlink="http://www.w3.org/1999/xlink" xml:space="preserve" overflow="hidden"><g transform="translate(-477 -477)"><g><g><g><g><path d="M526.005 498.248 526.007 498.248 563.465 533.831 568.005 529.951 526.007 489.998 526.005 489.998 484.007 529.951 488.547 533.831 526.005 498.248Z" fill="#FFFFFF" fill-rule="nonzero" fill-opacity="1"/><path d="M522.311 528.619 522.311 531.05 529.789 531.05 529.789 528.619C529.801 528.424 529.652 528.256 529.458 528.245 529.443 528.244 529.429 528.244 529.415 528.245L522.685 528.245C522.49 528.233 522.323 528.381 522.311 528.576 522.31 528.59 522.31 528.604 522.311 528.619Z" fill="#FFFFFF" fill-rule="nonzero" fill-opacity="1"/><path d="M496.005 532.263 496.005 561.998 556.005 561.998 556.005 532.261 526.006 503.764ZM541.006 550.504C541.004 551.329 540.335 551.997 539.51 552L512.59 552C511.765 551.997 511.097 551.329 511.095 550.504L511.095 540.029 523.807 540.029 523.807 540.777C523.809 541.602 524.477 542.271 525.302 542.273L526.798 542.273C527.623 542.271 528.291 541.602 528.293 540.777L528.293 540.029 541.006 540.029ZM532.032 528.619 532.032 531.05 539.51 531.05C540.336 531.053 541.004 531.722 541.006 532.547L541.006 538 528.293 538 528.293 537 523.807 537 523.807 538 511.094 538 511.094 532.547C511.096 531.722 511.765 531.053 512.59 531.05L520.068 531.05 520.068 528.619C520.058 527.182 521.216 526.009 522.653 526 522.664 526 522.674 526 522.685 526L529.415 526C530.852 525.991 532.024 527.149 532.032 528.586 532.032 528.597 532.032 528.608 532.032 528.619Z" fill="#FFFFFF" fill-rule="nonzero" fill-opacity="1"/></g></g></g></g></g></svg>